<svg width="16" height="16" viewBox="0 0 16 16" fill="none" xmlns="http://www.w3.org/2000/svg">
<path d="M12.6666 6.66663L3.33323 6.66663M12.6666 6.66663L13.9093 8.73791C14.1879 9.20211 14.3271 9.43421 14.3994 9.68406C14.4635 9.90545 14.4889 10.1363 14.4743 10.3663C14.4579 10.6259 14.3723 10.8827 14.2011 11.3962L14.0626 11.8119C13.8003 12.5987 13.6692 12.9921 13.4259 13.283C13.2112 13.5398 12.9353 13.7386 12.6237 13.8612C12.2709 14 11.8562 14 11.0268 14L4.97299 14C4.14361 14 3.72892 14 3.37607 13.8612C3.06448 13.7386 2.78864 13.5398 2.57385 13.283C2.33062 12.9921 2.19948 12.5987 1.93721 11.8119L1.79865 11.3962C1.62746 10.8827 1.54187 10.6259 1.52546 10.3663C1.51093 10.1363 1.53627 9.90545 1.60035 9.68406C1.67268 9.43421 1.81194 9.20211 2.09046 8.73791L3.33323 6.66663M12.6666 6.66663L12.9447 5.693C13.0766 5.2314 13.1426 5.00061 13.0908 4.81801C13.0454 4.65806 12.9419 4.52084 12.8006 4.43326C12.6392 4.33329 12.3992 4.33329 11.9191 4.33329L4.08067 4.33329C3.60061 4.33329 3.36058 4.33329 3.19924 4.43326C3.05791 4.52084 2.9544 4.65806 2.90903 4.81801C2.85722 5.00061 2.92317 5.2314 3.05505 5.693L3.33323 6.66663M7.9999 4.33329H5.64275C5.29545 4.33329 4.96236 4.19282 4.71678 3.94277C4.4712 3.69272 4.33323 3.35358 4.33323 2.99996C4.33323 2.64634 4.4712 2.3072 4.71678 2.05715C4.96236 1.8071 5.29545 1.66663 5.64275 1.66663C7.47609 1.66663 7.9999 4.33329 7.9999 4.33329ZM7.9999 4.33329H10.357C10.7043 4.33329 11.0374 4.19282 11.283 3.94277C11.5286 3.69272 11.6666 3.35358 11.6666 2.99996C11.6666 2.64634 11.5286 2.3072 11.283 2.05715C11.0374 1.8071 10.7043 1.66663 10.357 1.66663C8.52371 1.66663 7.9999 4.33329 7.9999 4.33329Z" stroke="#FAFAFA" stroke-linecap="round" stroke-linejoin="round"/>
</svg>
