<svg width="20" height="20" viewBox="0 0 20 20" fill="none" xmlns="http://www.w3.org/2000/svg">
<path d="M14.8982 16.7418C13.4745 17.7762 11.7598 18.3333 9.99999 18.3333C8.24017 18.3333 6.52551 17.7762 5.10178 16.7418M13.6531 2.51003C15.2348 3.28149 16.5317 4.53388 17.3579 6.08772C18.1841 7.64155 18.4971 9.41705 18.2522 11.1598M1.74784 11.1597C1.50292 9.41698 1.81599 7.64147 2.64218 6.08764C3.46837 4.5338 4.76526 3.28141 6.34698 2.50995M9.52859 5.47139L5.4714 9.52858C5.30639 9.69358 5.22389 9.77609 5.19298 9.87122C5.16579 9.95491 5.16579 10.0451 5.19298 10.1287C5.22389 10.2239 5.30639 10.3064 5.4714 10.4714L9.52859 14.5286C9.6936 14.6936 9.7761 14.7761 9.87124 14.807C9.95492 14.8342 10.0451 14.8342 10.1288 14.807C10.2239 14.7761 10.3064 14.6936 10.4714 14.5286L14.5286 10.4714C14.6936 10.3064 14.7761 10.2239 14.807 10.1287C14.8342 10.0451 14.8342 9.95491 14.807 9.87122C14.7761 9.77609 14.6936 9.69358 14.5286 9.52858L10.4714 5.47139C10.3064 5.30638 10.2239 5.22387 10.1288 5.19296C10.0451 5.16577 9.95492 5.16577 9.87124 5.19296C9.7761 5.22387 9.6936 5.30638 9.52859 5.47139Z" stroke="white" stroke-width="1.66667" stroke-linecap="round" stroke-linejoin="round"/>
</svg>
