<svg width="20" height="21" viewBox="0 0 20 21" fill="none" xmlns="http://www.w3.org/2000/svg">
<path d="M6.12617 12.7331C6.57021 14.4584 8.13631 15.7331 10.0002 15.7331C11.864 15.7331 13.4301 14.4584 13.8741 12.7331M9.01785 1.49715L2.23554 6.77228C1.78217 7.1249 1.55549 7.30121 1.39218 7.52201C1.24752 7.7176 1.13975 7.93794 1.07418 8.17221C1.00015 8.43667 1.00015 8.72385 1.00015 9.29821V16.5331C1.00015 17.6532 1.00015 18.2133 1.21814 18.6411C1.40989 19.0174 1.71585 19.3234 2.09217 19.5152C2.52 19.7331 3.08005 19.7331 4.20015 19.7331H15.8002C16.9203 19.7331 17.4803 19.7331 17.9081 19.5152C18.2845 19.3234 18.5904 19.0174 18.7822 18.6411C19.0002 18.2133 19.0002 17.6532 19.0002 16.5331V9.29821C19.0002 8.72385 19.0002 8.43667 18.9261 8.17221C18.8606 7.93794 18.7528 7.7176 18.6081 7.52201C18.4448 7.30121 18.2181 7.1249 17.7648 6.77228L10.9825 1.49715C10.6311 1.2239 10.4555 1.08727 10.2615 1.03476C10.0903 0.988415 9.90996 0.988415 9.73881 1.03476C9.54484 1.08727 9.36917 1.2239 9.01785 1.49715Z" stroke="#A3A3A3" stroke-width="2" stroke-linecap="round" stroke-linejoin="round"/>
</svg>
