<svg width="16" height="16" viewBox="0 0 16 16" fill="none" xmlns="http://www.w3.org/2000/svg">
<path d="M3.99992 4.00004L5.33325 2.66671M5.33325 2.66671L3.99992 1.33337M5.33325 2.66671H3.99992C2.52716 2.66671 1.33325 3.86061 1.33325 5.33337M11.9999 12L10.6666 13.3334M10.6666 13.3334L11.9999 14.6667M10.6666 13.3334H11.9999C13.4727 13.3334 14.6666 12.1395 14.6666 10.6667M6.7926 4.33337C7.23665 2.60815 8.80275 1.33337 10.6666 1.33337C12.8757 1.33337 14.6666 3.12424 14.6666 5.33337C14.6666 7.1972 13.3918 8.76329 11.6666 9.20735M9.33325 10.6667C9.33325 12.8758 7.54239 14.6667 5.33325 14.6667C3.12411 14.6667 1.33325 12.8758 1.33325 10.6667C1.33325 8.45757 3.12411 6.66671 5.33325 6.66671C7.54239 6.66671 9.33325 8.45757 9.33325 10.6667Z" stroke="#FAFAFA" stroke-linecap="round" stroke-linejoin="round"/>
</svg>
