<svg width="56" height="30" viewBox="0 0 56 30" fill="none" xmlns="http://www.w3.org/2000/svg">
<path d="M10.4572 19.3731C10.4598 19.3715 10.4627 19.3672 10.4643 19.3659L10.6614 19.1301L10.663 19.1301L16.5988 12.0401L16.6481 11.9813L16.8973 11.6857L16.9019 11.6819L16.9007 11.6803L9.35847 2.32201C8.54916 1.35815 7.11282 1.23306 6.15009 2.04115L1.17772 7.87974L0.528592 8.67683C-0.179009 9.54652 -0.176064 10.7946 0.536735 11.6607L7.09124 19.4851L7.10571 19.4992L7.15241 19.5431C7.37236 19.7534 7.62359 19.9108 7.89354 20.0145C7.96717 20.0431 8.0409 20.0689 8.118 20.0885C8.12051 20.0898 8.1231 20.0914 8.12631 20.0914C8.32426 20.1449 8.52794 20.1718 8.73143 20.1718C9.37016 20.1718 10.0072 19.9073 10.4572 19.3731Z" fill="url(#paint0_linear_1_181)"/>
<path d="M30.3463 20.1872C30.991 20.1872 31.636 19.916 32.0911 19.3736L32.7739 18.559L38.5785 11.6413L38.1796 11.1656L38.1411 11.1205L37.6374 10.5185C37.5921 10.4647 37.5453 10.4133 37.4954 10.3652L37.487 10.3566C37.463 10.3325 37.4374 10.3082 37.4119 10.2858C37.4103 10.2842 37.4103 10.2842 37.4089 10.2829C37.3804 10.2574 37.3519 10.233 37.3222 10.2089C37.2969 10.1876 37.2714 10.1678 37.2455 10.1494C37.2187 10.128 37.1904 10.1081 37.1619 10.0897C37.1263 10.0656 37.0923 10.0442 37.0569 10.0229C36.1297 9.47239 34.8891 9.63708 34.1511 10.5185C34.1451 10.5226 34.1409 10.5285 34.1366 10.5354L34.0276 10.6661L27.7586 18.3577L28.6031 19.3752C29.0574 19.9164 29.7012 20.1872 30.3455 20.1872L30.3463 20.1872Z" fill="#0A77BC"/>
<path d="M18.7082 29.1689L25.1895 21.4279L27.7578 18.3647L27.7578 18.3631L27.7607 18.3577L34.1231 10.7773L34.2326 10.6465C34.2365 10.6392 34.2411 10.6336 34.2463 10.6291C34.9849 9.74775 36.2252 9.58315 37.1525 10.1339C37.1878 10.1552 37.2218 10.1766 37.2575 10.2007C37.2853 10.2191 37.3145 10.2389 37.3414 10.2604C37.3667 10.279 37.3923 10.2986 37.4178 10.3196C37.4474 10.3426 37.4759 10.368 37.5044 10.3939C37.5059 10.3949 37.5059 10.3949 37.5073 10.3965C37.5328 10.4196 37.5584 10.4435 37.5824 10.4676L37.5909 10.4761L36.752 9.45268L35.9841 8.53691L29.4883 0.810364C28.5755 -0.271659 26.9076 -0.26984 26.0003 0.814175L19.5186 8.55527L16.9517 11.6217L16.9478 11.6257L16.9024 11.6797L16.9036 11.6813L16.899 11.6851L16.6498 11.9807L16.6005 12.0395L10.6647 19.1295L10.6631 19.1295L10.466 19.3653C10.4644 19.3666 10.4615 19.3709 10.4589 19.3725C9.86556 20.0767 8.94719 20.3125 8.128 20.0908C8.1248 20.0908 8.1222 20.0892 8.11969 20.0879C8.04259 20.0683 7.96886 20.0425 7.89523 20.0139C7.62529 19.9102 7.37405 19.7528 7.1541 19.5425L7.1074 19.4986L7.09293 19.4845L7.4172 19.875L8.7229 21.4449L8.84748 21.5939L15.2202 29.1731C15.6753 29.7134 16.3191 29.9835 16.9625 29.9835C17.6078 29.9832 18.2532 29.712 18.7082 29.1689Z" fill="url(#paint1_linear_1_181)"/>
<path d="M38.5802 30C39.2243 30 39.8689 29.7291 40.3239 29.1874L46.8133 21.4533L55.0634 11.6133C55.8722 10.6495 55.7621 9.38444 54.7842 8.40672L49.604 2.24829C48.8125 1.30773 47.3649 1.30375 46.5681 2.24101L38.58 11.6413L32.7763 18.5589L32.0918 19.3742C31.1828 20.4593 29.5133 20.4593 28.6042 19.3758L30.348 21.4533L36.8362 29.1859C37.291 29.7287 37.9351 30 38.5796 30L38.5802 30Z" fill="#1AC8FA"/>
<defs>
<linearGradient id="paint0_linear_1_181" x1="1.11451" y1="5.67571" x2="16.78" y2="13.1764" gradientUnits="userSpaceOnUse">
<stop stop-color="#26E7FF"/>
<stop offset="1" stop-color="#0080EE"/>
</linearGradient>
<linearGradient id="paint1_linear_1_181" x1="13.9171" y1="27.0662" x2="30.7723" y2="2.83187" gradientUnits="userSpaceOnUse">
<stop stop-color="#26E7FF"/>
<stop offset="1" stop-color="#0080EE"/>
</linearGradient>
</defs>
</svg>
