<svg width="20" height="21" viewBox="0 0 20 21" fill="none" xmlns="http://www.w3.org/2000/svg">
<path d="M14.0002 6.4319V2.93255C14.0002 2.10081 14.0002 1.68494 13.825 1.42937C13.672 1.20608 13.4349 1.05439 13.168 1.00898C12.8625 0.956995 12.4849 1.13127 11.7297 1.47982L2.85926 5.57389C2.18575 5.88474 1.849 6.04016 1.60235 6.28121C1.3843 6.49431 1.21786 6.75445 1.11575 7.04173C1.00024 7.36668 1.00024 7.73758 1.00024 8.47936V13.4319M14.5002 12.9319H14.5102M1.00024 9.6319L1.00024 16.2319C1.00024 17.352 1.00024 17.9121 1.21823 18.3399C1.40998 18.7162 1.71594 19.0222 2.09226 19.2139C2.52009 19.4319 3.08014 19.4319 4.20024 19.4319H15.8002C16.9203 19.4319 17.4804 19.4319 17.9082 19.2139C18.2845 19.0222 18.5905 18.7162 18.7823 18.3399C19.0002 17.9121 19.0002 17.352 19.0002 16.2319V9.6319C19.0002 8.51179 19.0002 7.95174 18.7823 7.52392C18.5905 7.14759 18.2846 6.84163 17.9082 6.64988C17.4804 6.4319 16.9203 6.4319 15.8002 6.4319L4.20024 6.4319C3.08014 6.4319 2.52009 6.4319 2.09226 6.64988C1.71594 6.84163 1.40998 7.14759 1.21823 7.52391C1.00024 7.95174 1.00024 8.51179 1.00024 9.6319ZM15.0002 12.9319C15.0002 13.208 14.7764 13.4319 14.5002 13.4319C14.2241 13.4319 14.0002 13.208 14.0002 12.9319C14.0002 12.6558 14.2241 12.4319 14.5002 12.4319C14.7764 12.4319 15.0002 12.6558 15.0002 12.9319Z" stroke="#A3A3A3" stroke-width="2" stroke-linecap="round" stroke-linejoin="round"/>
</svg>
